<svg width="0" height="0" class="hidden">
   <symbol  xmlns="http://www.w3.org/2000/svg" viewBox="0 0 24 24" id="home">
    <path d="M19 22H5a1 1 0 01-1-1v-8H2l9.292-9.293a1 1 0 011.415 0L22 13h-2v8a1 1 0 01-1 1zm-9-7h4v5h4v-8.172l-6-6-6 6V20h4v-5z" ></path>
  </symbol>
  <symbol  xmlns="http://www.w3.org/2000/svg" viewBox="0 0 24 24" id="library_music">
    <path d="M20 2H8c-1.1 0-2 .9-2 2v12c0 1.1.9 2 2 2h12c1.1 0 2-.9 2-2V4c0-1.1-.9-2-2-2zm0 14H8V4h12v12zm-7.5-1a2.5 2.5 0 002.5-2.5V7h3V5h-4v5.51c-.42-.32-.93-.51-1.5-.51a2.5 2.5 0 000 5zM4 6H2v14c0 1.1.9 2 2 2h14v-2H4V6z" ></path>
  </symbol>
  <symbol  xmlns="http://www.w3.org/2000/svg" viewBox="0 0 24 24" id="photo_library">
    <path d="M20 4v12H8V4h12zm0-2H8c-1.1 0-2 .9-2 2v12c0 1.1.9 2 2 2h12c1.1 0 2-.9 2-2V4c0-1.1-.9-2-2-2zm-8.5 9.67l1.69 2.26 2.48-3.1L19 15H9l2.5-3.33zM2 6v14c0 1.1.9 2 2 2h14v-2H4V6H2z" ></path>
  </symbol>
  <symbol  xmlns="http://www.w3.org/2000/svg" viewBox="0 0 24 24" id="video_library">
    <path d="M4 6H2v14c0 1.1.9 2 2 2h14v-2H4V6zm16-4H8c-1.1 0-2 .9-2 2v12c0 1.1.9 2 2 2h12c1.1 0 2-.9 2-2V4c0-1.1-.9-2-2-2zm0 14H8V4h12v12zM12 5.5v9l6-4.5-6-4.5z" ></path>
  </symbol>
  <symbol  xmlns="http://www.w3.org/2000/svg" viewBox="0 0 24 24" id="chat">
    <path d="M2 4v14l4.8-3.6c.346-.26.767-.4 1.2-.4h8a2 2 0 002-2V4a2 2 0 00-2-2H4a2 2 0 00-2 2zm2 10V4h12v8H7.334a1.984 1.984 0 00-1.2.4L4 14z" ></path>
    <path d="M22 22V9a2 2 0 00-2-2v11l-2.134-1.6a1.984 1.984 0 00-1.2-.4H7a2 2 0 002 2h7c.433 0 .854.14 1.2.4L22 22z" ></path>
  </symbol>
  <symbol  xmlns="http://www.w3.org/2000/svg" viewBox="0 0 24 24" id="favorite">
    <path d="M19.66 3.99c-2.64-1.8-5.9-.96-7.66 1.1-1.76-2.06-5.02-2.91-7.66-1.1-1.4.96-2.28 2.58-2.34 4.29-.14 3.88 3.3 6.99 8.55 11.76l.1.09c.76.69 1.93.69 2.69-.01l.11-.1c5.25-4.76 8.68-7.87 8.55-11.75-.06-1.7-.94-3.32-2.34-4.28zM12.1 18.55l-.1.1-.1-.1C7.14 14.24 4 11.39 4 8.5 4 6.5 5.5 5 7.5 5c1.54 0 3.04.99 3.57 2.36h1.87C13.46 5.99 14.96 5 16.5 5c2 0 3.5 1.5 3.5 3.5 0 2.89-3.14 5.74-7.9 10.05z" ></path>
  </symbol>
</svg>